<svg style="isolation:isolate" viewBox="0 0 150 45" width="150px" height="auto">
    <path d=" M 132.752 37.593 L 134.132 37.593 L 134.132 42.813 L 132.752 42.813 L 132.752 37.593 L 132.752 37.593 L 132.752 37.593 L 132.752 37.593 L 132.752 37.593 L 132.752 37.593 L 132.752 37.593 L 132.752 37.593 L 132.752 37.593 L 132.752 37.593 L 132.752 37.593 L 132.752 37.593 L 132.752 37.593 L 132.752 37.593 L 132.752 37.593 L 132.752 37.593 L 132.752 37.593 L 132.752 37.593 L 132.752 37.593 L 132.752 37.593 L 132.752 37.593 L 132.752 37.593 L 132.752 37.593 L 132.752 37.593 Z  M 132.752 35.606 L 134.132 35.606 L 134.132 36.885 L 132.752 36.885 L 132.752 35.606 L 132.752 35.606 L 132.752 35.606 L 132.752 35.606 L 132.752 35.606 L 132.752 35.606 L 132.752 35.606 L 132.752 35.606 L 132.752 35.606 L 132.752 35.606 L 132.752 35.606 L 132.752 35.606 L 132.752 35.606 L 132.752 35.606 L 132.752 35.606 L 132.752 35.606 L 132.752 35.606 L 132.752 35.606 L 132.752 35.606 L 132.752 35.606 L 132.752 35.606 L 132.752 35.606 L 132.752 35.606 L 132.752 35.606 Z  M 138.507 39.755 C 138.498 39.355 138.395 39.052 138.199 38.843 C 138.002 38.635 137.762 38.532 137.48 38.532 C 137.179 38.532 136.93 38.642 136.734 38.86 C 136.536 39.08 136.44 39.379 136.443 39.755 L 138.507 39.755 L 138.507 39.755 L 138.507 39.755 L 138.507 39.755 L 138.507 39.755 L 138.507 39.755 L 138.507 39.755 L 138.507 39.755 L 138.507 39.755 L 138.507 39.755 L 138.507 39.755 L 138.507 39.755 L 138.507 39.755 L 138.507 39.755 L 138.507 39.755 L 138.507 39.755 L 138.507 39.755 L 138.507 39.755 L 138.507 39.755 L 138.507 39.755 L 138.507 39.755 L 138.507 39.755 L 138.507 39.755 L 138.507 39.755 Z  M 16.388 40.09 C 16.388 40.63 16.473 41.03 16.644 41.288 C 16.883 41.656 17.2 41.84 17.597 41.84 C 17.901 41.84 18.161 41.71 18.376 41.45 C 18.591 41.188 18.697 40.778 18.697 40.218 C 18.697 39.62 18.589 39.191 18.373 38.927 C 18.157 38.664 17.88 38.532 17.543 38.532 C 17.212 38.532 16.937 38.66 16.717 38.918 C 16.499 39.174 16.388 39.564 16.388 40.09 L 16.388 40.09 L 16.388 40.09 L 16.388 40.09 L 16.388 40.09 L 16.388 40.09 L 16.388 40.09 L 16.388 40.09 L 16.388 40.09 L 16.388 40.09 L 16.388 40.09 L 16.388 40.09 L 16.388 40.09 L 16.388 40.09 L 16.388 40.09 L 16.388 40.09 L 16.388 40.09 L 16.388 40.09 L 16.388 40.09 L 16.388 40.09 L 16.388 40.09 L 16.388 40.09 L 16.388 40.09 Z  M 22.179 40.203 C 22.179 40.72 22.301 41.118 22.547 41.392 C 22.793 41.668 23.096 41.804 23.456 41.804 C 23.817 41.804 24.12 41.668 24.363 41.392 C 24.607 41.118 24.729 40.718 24.729 40.192 C 24.729 39.682 24.607 39.288 24.363 39.012 C 24.12 38.738 23.817 38.6 23.456 38.6 C 23.096 38.6 22.793 38.738 22.547 39.012 C 22.301 39.288 22.179 39.684 22.179 40.203 L 22.179 40.203 L 22.179 40.203 L 22.179 40.203 L 22.179 40.203 L 22.179 40.203 L 22.179 40.203 L 22.179 40.203 L 22.179 40.203 L 22.179 40.203 L 22.179 40.203 L 22.179 40.203 L 22.179 40.203 L 22.179 40.203 L 22.179 40.203 L 22.179 40.203 L 22.179 40.203 L 22.179 40.203 L 22.179 40.203 L 22.179 40.203 L 22.179 40.203 L 22.179 40.203 Z  M 30.525 42.812 L 30.525 42.031 C 30.335 42.31 30.085 42.528 29.776 42.69 C 29.467 42.85 29.14 42.931 28.796 42.931 C 28.445 42.931 28.131 42.852 27.852 42.699 C 27.573 42.546 27.372 42.33 27.248 42.051 C 27.123 41.772 27.06 41.387 27.06 40.895 L 27.06 37.592 L 28.441 37.592 L 28.441 39.991 C 28.441 40.726 28.468 41.175 28.519 41.34 C 28.569 41.507 28.661 41.636 28.796 41.734 C 28.929 41.831 29.1 41.879 29.307 41.879 C 29.543 41.879 29.753 41.814 29.941 41.684 C 30.128 41.555 30.255 41.395 30.324 41.203 C 30.392 41.011 30.427 40.542 30.427 39.795 L 30.427 37.592 L 31.808 37.592 L 31.808 42.812 L 30.525 42.812 L 30.525 42.812 L 30.525 42.812 L 30.525 42.812 L 30.525 42.812 L 30.525 42.812 L 30.525 42.812 L 30.525 42.812 L 30.525 42.812 L 30.525 42.812 L 30.525 42.812 L 30.525 42.812 L 30.525 42.812 L 30.525 42.812 L 30.525 42.812 L 30.525 42.812 L 30.525 42.812 L 30.525 42.812 L 30.525 42.812 L 30.525 42.812 Z  M 34.07 42.812 L 32.419 37.592 L 33.761 37.592 L 34.738 41.014 L 35.638 37.592 L 36.97 37.592 L 37.839 41.014 L 38.838 37.592 L 40.199 37.592 L 38.523 42.812 L 37.195 42.812 L 36.297 39.455 L 35.411 42.812 L 34.07 42.812 L 34.07 42.812 L 34.07 42.812 L 34.07 42.812 L 34.07 42.812 L 34.07 42.812 L 34.07 42.812 L 34.07 42.812 L 34.07 42.812 L 34.07 42.812 L 34.07 42.812 L 34.07 42.812 L 34.07 42.812 L 34.07 42.812 L 34.07 42.812 L 34.07 42.812 L 34.07 42.812 L 34.07 42.812 L 34.07 42.812 Z  M 44.537 40.203 C 44.537 40.72 44.66 41.118 44.905 41.392 C 45.152 41.668 45.454 41.804 45.814 41.804 C 46.176 41.804 46.478 41.668 46.721 41.392 C 46.965 41.118 47.088 40.718 47.088 40.192 C 47.088 39.682 46.965 39.288 46.721 39.012 C 46.478 38.738 46.176 38.6 45.814 38.6 C 45.454 38.6 45.152 38.738 44.905 39.012 C 44.66 39.288 44.537 39.684 44.537 40.203 L 44.537 40.203 L 44.537 40.203 L 44.537 40.203 L 44.537 40.203 L 44.537 40.203 L 44.537 40.203 L 44.537 40.203 L 44.537 40.203 L 44.537 40.203 L 44.537 40.203 L 44.537 40.203 L 44.537 40.203 L 44.537 40.203 L 44.537 40.203 L 44.537 40.203 L 44.537 40.203 L 44.537 40.203 L 44.537 40.203 Z  M 54.196 42.812 L 52.814 42.812 L 52.814 40.148 C 52.814 39.586 52.785 39.222 52.726 39.055 C 52.668 38.89 52.572 38.762 52.438 38.67 C 52.306 38.578 52.146 38.532 51.96 38.532 C 51.721 38.532 51.505 38.598 51.316 38.728 C 51.125 38.859 50.996 39.032 50.925 39.25 C 50.854 39.466 50.82 39.866 50.82 40.45 L 50.82 42.812 L 49.438 42.812 L 49.438 37.592 L 50.721 37.592 L 50.721 38.359 C 51.176 37.77 51.75 37.475 52.441 37.475 C 52.746 37.475 53.025 37.53 53.277 37.639 C 53.529 37.75 53.72 37.89 53.849 38.06 C 53.978 38.23 54.069 38.423 54.12 38.64 C 54.17 38.856 54.196 39.166 54.196 39.568 L 54.196 42.812 L 54.196 42.812 L 54.196 42.812 L 54.196 42.812 L 54.196 42.812 L 54.196 42.812 L 54.196 42.812 L 54.196 42.812 L 54.196 42.812 L 54.196 42.812 L 54.196 42.812 L 54.196 42.812 L 54.196 42.812 L 54.196 42.812 L 54.196 42.812 L 54.196 42.812 L 54.196 42.812 Z  M 56.557 40.09 C 56.557 40.647 56.634 41.05 56.787 41.298 C 57.01 41.659 57.322 41.84 57.722 41.84 C 58.039 41.84 58.309 41.704 58.531 41.434 C 58.754 41.164 58.866 40.76 58.866 40.223 C 58.866 39.622 58.758 39.191 58.542 38.927 C 58.326 38.664 58.049 38.532 57.711 38.532 C 57.383 38.532 57.11 38.663 56.889 38.923 C 56.667 39.183 56.557 39.571 56.557 40.09 L 56.557 40.09 L 56.557 40.09 L 56.557 40.09 L 56.557 40.09 L 56.557 40.09 L 56.557 40.09 L 56.557 40.09 L 56.557 40.09 L 56.557 40.09 L 56.557 40.09 L 56.557 40.09 L 56.557 40.09 L 56.557 40.09 L 56.557 40.09 L 56.557 40.09 L 56.557 40.09 Z  M 64.564 39.755 C 64.554 39.355 64.45 39.052 64.254 38.843 C 64.057 38.635 63.818 38.532 63.536 38.532 C 63.234 38.532 62.986 38.642 62.789 38.86 C 62.593 39.08 62.496 39.379 62.5 39.755 L 64.564 39.755 L 64.564 39.755 L 64.564 39.755 L 64.564 39.755 L 64.564 39.755 L 64.564 39.755 L 64.564 39.755 L 64.564 39.755 L 64.564 39.755 L 64.564 39.755 L 64.564 39.755 L 64.564 39.755 L 64.564 39.755 L 64.564 39.755 L 64.564 39.755 L 64.564 39.755 Z  M 68.241 42.812 L 66.86 42.812 L 66.86 37.592 L 68.143 37.592 L 68.143 38.336 C 68.363 37.984 68.56 37.754 68.736 37.642 C 68.911 37.531 69.109 37.475 69.332 37.475 C 69.647 37.475 69.951 37.562 70.241 37.735 L 69.815 38.94 C 69.581 38.788 69.365 38.714 69.165 38.714 C 68.972 38.714 68.808 38.767 68.675 38.874 C 68.54 38.98 68.435 39.172 68.357 39.451 C 68.28 39.728 68.241 40.312 68.241 41.2 L 68.241 42.812 L 68.241 42.812 L 68.241 42.812 L 68.241 42.812 L 68.241 42.812 L 68.241 42.812 L 68.241 42.812 L 68.241 42.812 L 68.241 42.812 L 68.241 42.812 L 68.241 42.812 L 68.241 42.812 L 68.241 42.812 L 68.241 42.812 Z  M 72.071 35.607 L 72.071 38.256 C 72.516 37.736 73.049 37.475 73.668 37.475 C 73.987 37.475 74.272 37.533 74.528 37.652 C 74.784 37.769 74.976 37.92 75.105 38.104 C 75.235 38.288 75.323 38.491 75.371 38.713 C 75.419 38.936 75.443 39.283 75.443 39.751 L 75.443 42.812 L 74.061 42.812 L 74.061 40.056 C 74.061 39.508 74.035 39.161 73.983 39.013 C 73.931 38.865 73.837 38.748 73.705 38.663 C 73.572 38.576 73.405 38.532 73.207 38.532 C 72.977 38.532 72.772 38.587 72.592 38.699 C 72.412 38.809 72.28 38.977 72.196 39.203 C 72.112 39.427 72.071 39.759 72.071 40.197 L 72.071 42.812 L 70.689 42.812 L 70.689 35.607 L 72.071 35.607 L 72.071 35.607 L 72.071 35.607 L 72.071 35.607 L 72.071 35.607 L 72.071 35.607 L 72.071 35.607 L 72.071 35.607 L 72.071 35.607 L 72.071 35.607 L 72.071 35.607 L 72.071 35.607 L 72.071 35.607 Z  M 77.799 40.203 C 77.799 40.72 77.921 41.118 78.167 41.392 C 78.413 41.668 78.716 41.804 79.076 41.804 C 79.437 41.804 79.739 41.668 79.984 41.392 C 80.227 41.118 80.349 40.718 80.349 40.192 C 80.349 39.682 80.227 39.288 79.984 39.012 C 79.739 38.738 79.437 38.6 79.076 38.6 C 78.716 38.6 78.413 38.738 78.167 39.012 C 77.921 39.288 77.799 39.684 77.799 40.203 L 77.799 40.203 L 77.799 40.203 L 77.799 40.203 L 77.799 40.203 L 77.799 40.203 L 77.799 40.203 L 77.799 40.203 L 77.799 40.203 L 77.799 40.203 L 77.799 40.203 L 77.799 40.203 L 77.799 40.203 Z  M 86.145 42.812 L 86.145 42.031 C 85.954 42.31 85.705 42.528 85.396 42.69 C 85.086 42.85 84.76 42.931 84.416 42.931 C 84.064 42.931 83.75 42.852 83.472 42.699 C 83.193 42.546 82.992 42.33 82.868 42.051 C 82.742 41.772 82.68 41.387 82.68 40.895 L 82.68 37.592 L 84.061 37.592 L 84.061 39.991 C 84.061 40.726 84.086 41.175 84.137 41.34 C 84.188 41.507 84.281 41.636 84.416 41.734 C 84.55 41.831 84.721 41.879 84.926 41.879 C 85.162 41.879 85.374 41.814 85.561 41.684 C 85.746 41.555 85.876 41.395 85.944 41.203 C 86.012 41.011 86.048 40.542 86.048 39.795 L 86.048 37.592 L 87.428 37.592 L 87.428 42.812 L 86.145 42.812 L 86.145 42.812 L 86.145 42.812 L 86.145 42.812 L 86.145 42.812 L 86.145 42.812 L 86.145 42.812 L 86.145 42.812 L 86.145 42.812 L 86.145 42.812 L 86.145 42.812 Z  M 89.817 40.09 C 89.817 40.647 89.894 41.05 90.049 41.298 C 90.272 41.659 90.582 41.84 90.982 41.84 C 91.3 41.84 91.569 41.704 91.793 41.434 C 92.016 41.164 92.126 40.76 92.126 40.223 C 92.126 39.622 92.018 39.191 91.802 38.927 C 91.586 38.664 91.309 38.532 90.972 38.532 C 90.645 38.532 90.37 38.663 90.149 38.923 C 89.928 39.183 89.817 39.571 89.817 40.09 L 89.817 40.09 L 89.817 40.09 L 89.817 40.09 L 89.817 40.09 L 89.817 40.09 L 89.817 40.09 L 89.817 40.09 L 89.817 40.09 L 89.817 40.09 L 89.817 40.09 Z  M 98.701 42.812 L 97.321 42.812 L 97.321 37.592 L 98.604 37.592 L 98.604 38.336 C 98.822 37.984 99.02 37.754 99.194 37.642 C 99.37 37.531 99.569 37.475 99.792 37.475 C 100.108 37.475 100.409 37.562 100.701 37.735 L 100.274 38.94 C 100.041 38.788 99.825 38.714 99.625 38.714 C 99.432 38.714 99.268 38.767 99.133 38.874 C 99 38.98 98.894 39.172 98.817 39.451 C 98.74 39.728 98.701 40.312 98.701 41.2 L 98.701 42.812 L 98.701 42.812 L 98.701 42.812 L 98.701 42.812 L 98.701 42.812 L 98.701 42.812 L 98.701 42.812 L 98.701 42.812 L 98.701 42.812 Z  M 104.256 39.755 C 104.246 39.355 104.144 39.052 103.948 38.843 C 103.75 38.635 103.51 38.532 103.229 38.532 C 102.928 38.532 102.678 38.642 102.482 38.86 C 102.285 39.08 102.189 39.379 102.192 39.755 L 104.256 39.755 L 104.256 39.755 L 104.256 39.755 L 104.256 39.755 L 104.256 39.755 L 104.256 39.755 L 104.256 39.755 L 104.256 39.755 L 104.256 39.755 Z  M 111.36 42.812 L 109.979 42.812 L 109.979 40.148 C 109.979 39.586 109.949 39.222 109.889 39.055 C 109.832 38.89 109.735 38.762 109.604 38.67 C 109.471 38.578 109.311 38.532 109.124 38.532 C 108.885 38.532 108.669 38.598 108.48 38.728 C 108.289 38.859 108.16 39.032 108.089 39.25 C 108.019 39.466 107.984 39.866 107.984 40.45 L 107.984 42.812 L 106.603 42.812 L 106.603 37.592 L 107.885 37.592 L 107.885 38.359 C 108.34 37.77 108.913 37.475 109.605 37.475 C 109.909 37.475 110.188 37.53 110.441 37.639 C 110.693 37.75 110.884 37.89 111.013 38.06 C 111.143 38.23 111.232 38.423 111.283 38.64 C 111.333 38.856 111.36 39.166 111.36 39.568 L 111.36 42.812 L 111.36 42.812 L 111.36 42.812 L 111.36 42.812 L 111.36 42.812 L 111.36 42.812 L 111.36 42.812 Z  M 113.717 40.203 C 113.717 40.72 113.839 41.118 114.085 41.392 C 114.33 41.668 114.634 41.804 114.994 41.804 C 115.355 41.804 115.657 41.668 115.901 41.392 C 116.145 41.118 116.266 40.718 116.266 40.192 C 116.266 39.682 116.145 39.288 115.901 39.012 C 115.657 38.738 115.355 38.6 114.994 38.6 C 114.634 38.6 114.33 38.738 114.085 39.012 C 113.839 39.288 113.717 39.684 113.717 40.203 L 113.717 40.203 L 113.717 40.203 L 113.717 40.203 L 113.717 40.203 L 113.717 40.203 L 113.717 40.203 Z  M 120.062 42.812 L 117.959 37.592 L 119.408 37.592 L 120.391 40.256 L 120.676 41.146 C 120.752 40.92 120.799 40.771 120.818 40.699 C 120.864 40.552 120.914 40.404 120.966 40.256 L 121.959 37.592 L 123.379 37.592 L 121.306 42.812 L 120.062 42.812 L 120.062 42.812 L 120.062 42.812 L 120.062 42.812 L 120.062 42.812 Z  M 126.964 40.306 C 126.787 40.364 126.507 40.435 126.123 40.516 C 125.74 40.599 125.489 40.679 125.372 40.758 C 125.191 40.886 125.101 41.048 125.101 41.244 C 125.101 41.438 125.172 41.606 125.317 41.746 C 125.461 41.887 125.645 41.956 125.868 41.956 C 126.116 41.956 126.355 41.875 126.58 41.712 C 126.748 41.587 126.857 41.435 126.909 41.255 C 126.945 41.136 126.964 40.912 126.964 40.58 L 126.964 40.306 L 126.964 40.306 L 126.964 40.306 L 126.964 40.306 L 126.964 40.306 Z  M 131.934 37.592 L 131.934 38.694 L 130.99 38.694 L 130.99 40.796 C 130.99 41.224 130.999 41.471 131.017 41.542 C 131.035 41.612 131.075 41.671 131.139 41.716 C 131.203 41.763 131.282 41.786 131.374 41.786 C 131.502 41.786 131.686 41.74 131.929 41.652 L 132.047 42.724 C 131.726 42.862 131.362 42.931 130.957 42.931 C 130.707 42.931 130.482 42.89 130.283 42.804 C 130.082 42.722 129.937 42.614 129.843 42.48 C 129.749 42.347 129.685 42.17 129.649 41.943 C 129.619 41.783 129.605 41.458 129.605 40.97 L 129.605 38.694 L 128.97 38.694 L 128.97 37.592 L 129.605 37.592 L 129.605 36.556 L 130.99 35.75 L 130.99 37.592 L 131.934 37.592 L 131.934 37.592 L 131.934 37.592 Z  M 138.619 32.915 C 138.91 32.915 138.968 32.564 139.258 32.447 C 139.202 32.447 139.143 32.447 139.084 32.331 C 139.084 32.274 139.202 32.274 139.258 32.216 L 139.258 31.575 C 139.027 31.343 138.794 31.284 138.56 31.052 C 133.091 29.772 126.92 30.47 121.336 30.295 C 120.814 30.179 120.29 30.354 119.936 30.179 C 119.822 30.179 119.822 30.238 119.762 30.295 C 119.008 30.587 118.252 30.12 117.494 30.354 C 116.622 30.354 115.691 30.412 114.932 30.238 C 113.536 30.412 112.202 30.412 110.743 30.412 C 110.103 30.47 109.462 30.354 108.942 30.238 C 108.3 30.238 107.658 29.946 107.194 30.295 C 106.904 30.587 106.963 30.762 106.73 30.936 L 106.262 32.39 C 106.147 32.506 106.088 32.739 106.032 32.972 C 106.032 33.03 106.032 33.09 106.088 33.147 L 107.427 33.09 C 107.542 33.09 107.542 33.03 107.602 32.972 L 107.835 33.09 L 112.371 33.03 L 112.664 33.147 C 116.503 33.03 120.29 32.855 124.128 32.915 C 124.884 33.09 125.468 33.03 126.106 33.03 C 127.331 32.798 128.552 33.03 129.714 32.915 C 130.647 33.204 131.288 32.564 132.1 32.915 C 133.79 32.798 135.476 32.798 137.107 32.915 C 137.164 32.855 137.107 32.798 137.048 32.739 L 137.048 32.564 C 137.223 32.39 137.572 32.447 137.747 32.564 C 137.747 32.68 137.688 32.68 137.747 32.798 C 137.803 32.798 137.747 32.68 137.863 32.68 C 137.978 32.68 138.151 32.739 138.27 32.739 L 138.619 32.915 L 138.619 32.915 L 138.619 32.915 Z  M 126.166 25.348 C 126.804 25.232 127.62 25.407 128.203 24.942 L 130.82 24.651 C 130.939 24.651 130.879 24.476 130.995 24.418 L 132.16 23.951 L 127.851 23.719 C 127.795 23.719 127.795 23.662 127.795 23.604 C 128.144 22.555 128.086 21.391 128.144 20.286 C 129.132 20.226 130.356 20.111 131.403 19.936 C 131.926 20.054 132.454 19.819 132.915 20.054 L 132.799 23.719 C 132.624 23.894 132.51 24.184 132.624 24.476 L 132.915 24.534 C 133.091 24.534 133.147 24.651 133.207 24.708 L 134.195 24.184 L 134.487 20.692 L 134.778 19.762 L 134.428 19.296 C 133.44 19.004 132.275 19.239 131.288 19.528 C 130.007 19.587 128.492 19.414 127.212 19.994 C 127.096 20.17 126.982 20.343 126.804 20.402 C 126.63 20.751 126.515 21.159 126.455 21.566 C 126.455 22.091 126.166 22.498 126.28 22.963 C 126.166 23.427 126.28 24.01 125.931 24.476 C 125.931 24.767 125.991 25.058 126.05 25.29 C 126.106 25.29 126.106 25.29 126.166 25.348 L 126.166 25.348 L 126.166 25.348 Z  M 145.951 24.01 L 146.882 23.894 C 146.882 23.662 146.766 23.544 146.651 23.427 L 147.056 22.847 C 146.707 22.322 146.01 21.623 145.486 21.276 C 145.427 21.218 145.427 21.159 145.312 21.1 L 144.788 20.751 C 144.67 20.751 144.67 20.692 144.614 20.635 C 144.614 20.519 144.439 20.576 144.38 20.519 C 144.32 20.46 144.264 20.402 144.206 20.286 L 143.392 19.644 C 143.392 19.703 143.508 19.703 143.567 19.762 C 143.683 19.878 143.739 20.054 143.858 20.226 C 143.916 20.226 143.683 20.46 143.739 20.343 L 144.032 20.635 C 144.032 20.692 143.972 20.751 144.032 20.808 C 143.623 20.808 143.508 20.343 143.159 20.286 C 143.099 20.286 143.099 20.17 143.04 20.111 C 142.87 20.111 142.81 19.936 142.692 19.819 C 142.052 19.528 141.471 18.831 140.772 18.482 C 138.91 16.794 136.815 15.396 135.246 13.652 C 134.952 13.303 134.718 13.07 134.428 12.778 C 134.139 12.371 133.906 12.08 133.731 11.671 C 133.731 11.614 133.731 11.556 133.79 11.556 L 135.36 13.127 L 136.232 13.827 L 136.351 13.827 C 136.232 13.535 135.883 13.535 135.768 13.127 C 135.768 13.127 135.65 13.127 135.594 13.07 C 134.778 12.196 133.906 11.032 133.147 10.159 C 131.403 7.54 129.31 5.62 128.262 2.478 C 127.736 2.187 126.982 2.419 126.399 2.711 C 126.224 2.827 126.224 2.943 126.166 3.002 C 126.748 5.098 127.97 6.494 129.016 8.18 C 132.275 12.546 136.526 16.211 140.656 19.355 C 140.715 19.414 140.772 19.471 140.831 19.587 C 140.89 19.703 141.064 19.819 141.239 19.819 C 142.052 20.635 143.099 21.448 143.739 22.498 C 143.798 22.787 143.798 22.906 143.916 23.079 C 143.972 23.195 144.091 23.252 144.091 23.427 C 144.555 23.835 145.138 24.01 145.951 24.01 L 145.951 24.01 L 145.951 24.01 Z  M 111.266 30.003 C 111.908 29.946 112.724 30.12 113.304 29.655 L 115.983 29.366 C 116.039 29.366 116.039 29.188 116.098 29.131 L 117.319 28.722 L 112.955 28.491 C 112.895 28.434 112.895 28.374 112.839 28.319 C 113.248 27.27 113.592 20.926 113.592 19.762 C 114.584 19.762 115.75 19.644 116.856 19.414 C 117.379 19.587 117.903 19.296 118.367 19.587 L 117.843 28.434 C 117.728 28.608 117.61 28.899 117.784 29.131 L 118.078 29.188 C 118.192 29.188 118.192 29.306 118.311 29.423 L 119.358 28.899 L 119.999 20.226 L 120.23 19.296 L 119.936 18.831 C 118.95 18.54 117.784 18.715 116.796 19.004 C 115.456 19.064 113.946 18.89 112.606 19.471 C 112.546 19.644 112.431 19.819 112.258 19.936 C 112.083 20.343 112.023 20.751 111.848 21.159 C 111.848 21.683 111.21 27.27 111.384 27.675 C 111.266 28.084 111.384 28.782 111.091 29.131 C 111.091 29.423 111.091 29.715 111.15 29.946 C 111.21 29.946 111.21 29.946 111.266 30.003 L 111.266 30.003 L 111.266 30.003 Z  M 104.867 20.519 L 105.564 20.226 C 106.904 18.423 108.823 17.318 110.452 15.688 C 111.21 15.164 111.674 14.407 112.371 13.884 C 112.664 13.592 112.895 13.36 113.188 13.186 C 113.652 12.488 114.584 12.196 115.107 11.498 C 115.226 11.44 115.282 11.382 115.342 11.324 C 115.342 11.266 115.398 11.207 115.398 11.148 C 116.328 10.624 117.319 9.81 118.134 9.17 C 119.183 8.18 120.579 7.483 121.511 6.262 C 121.8 5.97 122.498 5.854 122.672 5.272 L 123.604 4.515 C 124.072 4.458 124.418 4.34 124.654 3.816 C 124.654 3.526 124.595 3.234 124.303 3.002 C 123.954 2.536 123.314 2.711 122.791 2.886 C 122.732 2.943 122.672 3.002 122.672 3.002 L 122.558 3.467 C 122.498 3.526 122.383 3.583 122.267 3.583 C 121.744 4.05 121.158 4.748 120.52 5.272 C 119.239 6.726 117.668 7.715 116.272 9.17 C 115.456 9.752 114.818 10.276 114.06 11.032 C 114.002 11.091 114.002 11.148 114.002 11.148 L 110.976 13.71 L 106.963 17.2 C 106.844 17.2 106.73 17.26 106.73 17.375 C 105.972 18.075 105.04 18.89 104.462 19.819 C 104.402 19.936 104.402 20.111 104.402 20.286 C 104.462 20.402 104.576 20.286 104.692 20.402 C 104.751 20.402 104.751 20.576 104.867 20.519 L 104.867 20.519 L 104.867 20.519 Z  M 142.343 18.831 L 142.052 18.656 C 142.111 18.656 142.168 18.831 142.343 18.831 L 142.343 18.831 L 142.343 18.831 Z  M 134.603 18.248 L 134.718 18.248 L 135.535 17.84 C 135.594 17.668 135.768 17.435 135.65 17.2 C 135.36 16.562 134.718 16.386 134.139 16.154 C 131.638 17.026 128.783 15.862 126.106 16.095 C 121.86 15.747 117.784 15.631 113.479 15.92 C 112.895 16.036 112.315 15.979 111.967 16.503 C 111.734 16.794 111.848 17.143 111.734 17.492 C 111.618 17.492 111.499 17.724 111.499 17.9 C 111.499 17.958 111.559 17.958 111.618 18.018 C 118.311 16.386 125.524 18.423 132.454 17.783 C 133.091 18.19 133.612 18.018 134.314 18.132 C 134.428 18.19 134.368 18.248 134.603 18.248 L 134.603 18.248 L 134.603 18.248 Z  M 138.428 41.151 L 139.806 41.383 C 139.628 41.887 139.348 42.271 138.967 42.535 C 138.586 42.798 138.107 42.931 137.535 42.931 C 136.627 42.931 135.955 42.634 135.52 42.04 C 135.175 41.566 135.003 40.966 135.003 40.242 C 135.003 39.378 135.23 38.699 135.682 38.21 C 136.134 37.72 136.706 37.475 137.396 37.475 C 138.174 37.475 138.786 37.731 139.235 38.244 C 139.684 38.758 139.899 39.543 139.879 40.602 L 136.419 40.602 C 136.428 41.01 136.539 41.33 136.754 41.558 C 136.967 41.784 137.231 41.898 137.548 41.898 C 137.766 41.898 137.947 41.839 138.094 41.722 C 138.243 41.603 138.354 41.414 138.428 41.151 L 138.428 41.151 L 138.428 41.151 L 138.428 41.151 L 138.428 41.151 L 138.428 41.151 L 138.428 41.151 L 138.428 41.151 L 138.428 41.151 L 138.428 41.151 L 138.428 41.151 L 138.428 41.151 L 138.428 41.151 L 138.428 41.151 L 138.428 41.151 L 138.428 41.151 L 138.428 41.151 L 138.428 41.151 L 138.428 41.151 L 138.428 41.151 L 138.428 41.151 L 138.428 41.151 L 138.428 41.151 L 138.428 41.151 Z  M 15.017 42.812 L 15.017 35.607 L 16.397 35.607 L 16.397 38.202 C 16.824 37.718 17.328 37.475 17.912 37.475 C 18.548 37.475 19.073 37.706 19.489 38.166 C 19.905 38.626 20.113 39.287 20.113 40.148 C 20.113 41.04 19.901 41.727 19.477 42.208 C 19.053 42.69 18.537 42.931 17.932 42.931 C 17.633 42.931 17.339 42.855 17.049 42.707 C 16.759 42.558 16.509 42.338 16.3 42.046 L 16.3 42.812 L 15.017 42.812 L 15.017 42.812 L 15.017 42.812 L 15.017 42.812 L 15.017 42.812 L 15.017 42.812 L 15.017 42.812 L 15.017 42.812 L 15.017 42.812 L 15.017 42.812 L 15.017 42.812 L 15.017 42.812 L 15.017 42.812 L 15.017 42.812 L 15.017 42.812 L 15.017 42.812 L 15.017 42.812 L 15.017 42.812 L 15.017 42.812 L 15.017 42.812 L 15.017 42.812 L 15.017 42.812 L 15.017 42.812 Z  M 20.763 40.128 C 20.763 39.671 20.876 39.227 21.103 38.796 C 21.328 38.368 21.649 38.04 22.064 37.814 C 22.477 37.588 22.94 37.475 23.452 37.475 C 24.241 37.475 24.888 37.731 25.393 38.244 C 25.897 38.758 26.149 39.404 26.149 40.187 C 26.149 40.978 25.895 41.632 25.385 42.151 C 24.876 42.671 24.235 42.931 23.461 42.931 C 22.983 42.931 22.527 42.823 22.093 42.606 C 21.659 42.39 21.328 42.072 21.103 41.655 C 20.876 41.236 20.763 40.73 20.763 40.128 L 20.763 40.128 L 20.763 40.128 L 20.763 40.128 L 20.763 40.128 L 20.763 40.128 L 20.763 40.128 L 20.763 40.128 L 20.763 40.128 L 20.763 40.128 L 20.763 40.128 L 20.763 40.128 L 20.763 40.128 L 20.763 40.128 L 20.763 40.128 L 20.763 40.128 L 20.763 40.128 L 20.763 40.128 L 20.763 40.128 L 20.763 40.128 L 20.763 40.128 L 20.763 40.128 Z  M 43.121 40.128 C 43.121 39.671 43.234 39.227 43.461 38.796 C 43.686 38.368 44.008 38.04 44.422 37.814 C 44.836 37.588 45.298 37.475 45.81 37.475 C 46.6 37.475 47.246 37.731 47.752 38.244 C 48.256 38.758 48.508 39.404 48.508 40.187 C 48.508 40.978 48.253 41.632 47.744 42.151 C 47.234 42.671 46.593 42.931 45.82 42.931 C 45.341 42.931 44.885 42.823 44.452 42.606 C 44.017 42.39 43.686 42.072 43.461 41.655 C 43.234 41.236 43.121 40.73 43.121 40.128 L 43.121 40.128 L 43.121 40.128 L 43.121 40.128 L 43.121 40.128 L 43.121 40.128 L 43.121 40.128 L 43.121 40.128 L 43.121 40.128 L 43.121 40.128 L 43.121 40.128 L 43.121 40.128 L 43.121 40.128 L 43.121 40.128 L 43.121 40.128 L 43.121 40.128 L 43.121 40.128 L 43.121 40.128 L 43.121 40.128 Z  M 60.242 42.812 L 58.959 42.812 L 58.959 42.046 C 58.747 42.343 58.495 42.566 58.205 42.712 C 57.915 42.858 57.623 42.931 57.329 42.931 C 56.729 42.931 56.215 42.688 55.787 42.206 C 55.359 41.723 55.146 41.048 55.146 40.183 C 55.146 39.298 55.354 38.626 55.77 38.166 C 56.186 37.706 56.713 37.475 57.347 37.475 C 57.931 37.475 58.435 37.718 58.862 38.202 L 58.862 35.607 L 60.242 35.607 L 60.242 42.812 L 60.242 42.812 L 60.242 42.812 L 60.242 42.812 L 60.242 42.812 L 60.242 42.812 L 60.242 42.812 L 60.242 42.812 L 60.242 42.812 L 60.242 42.812 L 60.242 42.812 L 60.242 42.812 L 60.242 42.812 L 60.242 42.812 L 60.242 42.812 L 60.242 42.812 L 60.242 42.812 Z  M 64.485 41.151 L 65.861 41.383 C 65.684 41.887 65.405 42.271 65.024 42.535 C 64.641 42.798 64.164 42.931 63.59 42.931 C 62.682 42.931 62.012 42.634 61.576 42.04 C 61.232 41.566 61.06 40.966 61.06 40.242 C 61.06 39.378 61.286 38.699 61.737 38.21 C 62.19 37.72 62.761 37.475 63.453 37.475 C 64.23 37.475 64.842 37.731 65.29 38.244 C 65.74 38.758 65.954 39.543 65.934 40.602 L 62.476 40.602 C 62.485 41.01 62.596 41.33 62.809 41.558 C 63.022 41.784 63.288 41.898 63.605 41.898 C 63.821 41.898 64.004 41.839 64.15 41.722 C 64.298 41.603 64.409 41.414 64.485 41.151 L 64.485 41.151 L 64.485 41.151 L 64.485 41.151 L 64.485 41.151 L 64.485 41.151 L 64.485 41.151 L 64.485 41.151 L 64.485 41.151 L 64.485 41.151 L 64.485 41.151 L 64.485 41.151 L 64.485 41.151 L 64.485 41.151 L 64.485 41.151 L 64.485 41.151 Z  M 76.383 40.128 C 76.383 39.671 76.496 39.227 76.723 38.796 C 76.948 38.368 77.269 38.04 77.683 37.814 C 78.099 37.588 78.56 37.475 79.072 37.475 C 79.861 37.475 80.508 37.731 81.012 38.244 C 81.517 38.758 81.771 39.404 81.771 40.187 C 81.771 40.978 81.515 41.632 81.005 42.151 C 80.496 42.671 79.855 42.931 79.081 42.931 C 78.604 42.931 78.147 42.823 77.713 42.606 C 77.279 42.39 76.948 42.072 76.723 41.655 C 76.496 41.236 76.383 40.73 76.383 40.128 L 76.383 40.128 L 76.383 40.128 L 76.383 40.128 L 76.383 40.128 L 76.383 40.128 L 76.383 40.128 L 76.383 40.128 L 76.383 40.128 L 76.383 40.128 L 76.383 40.128 L 76.383 40.128 L 76.383 40.128 Z  M 93.504 42.812 L 92.221 42.812 L 92.221 42.046 C 92.008 42.343 91.756 42.566 91.466 42.712 C 91.177 42.858 90.884 42.931 90.589 42.931 C 89.989 42.931 89.476 42.688 89.049 42.206 C 88.621 41.723 88.406 41.048 88.406 40.183 C 88.406 39.298 88.616 38.626 89.03 38.166 C 89.448 37.706 89.973 37.475 90.609 37.475 C 91.192 37.475 91.696 37.718 92.122 38.202 L 92.122 35.607 L 93.504 35.607 L 93.504 42.812 L 93.504 42.812 L 93.504 42.812 L 93.504 42.812 L 93.504 42.812 L 93.504 42.812 L 93.504 42.812 L 93.504 42.812 L 93.504 42.812 L 93.504 42.812 L 93.504 42.812 Z  M 104.177 41.151 L 105.554 41.383 C 105.377 41.887 105.097 42.271 104.716 42.535 C 104.334 42.798 103.856 42.931 103.284 42.931 C 102.376 42.931 101.704 42.634 101.269 42.04 C 100.924 41.566 100.752 40.966 100.752 40.242 C 100.752 39.378 100.978 38.699 101.43 38.21 C 101.882 37.72 102.454 37.475 103.145 37.475 C 103.922 37.475 104.534 37.731 104.984 38.244 C 105.433 38.758 105.648 39.543 105.628 40.602 L 102.168 40.602 C 102.177 41.01 102.288 41.33 102.502 41.558 C 102.716 41.784 102.98 41.898 103.297 41.898 C 103.514 41.898 103.696 41.839 103.842 41.722 C 103.992 41.603 104.102 41.414 104.177 41.151 L 104.177 41.151 L 104.177 41.151 L 104.177 41.151 L 104.177 41.151 L 104.177 41.151 L 104.177 41.151 L 104.177 41.151 L 104.177 41.151 Z  M 112.301 40.128 C 112.301 39.671 112.413 39.227 112.639 38.796 C 112.866 38.368 113.186 38.04 113.601 37.814 C 114.015 37.588 114.478 37.475 114.989 37.475 C 115.778 37.475 116.425 37.731 116.93 38.244 C 117.434 38.758 117.687 39.404 117.687 40.187 C 117.687 40.978 117.433 41.632 116.922 42.151 C 116.413 42.671 115.771 42.931 114.999 42.931 C 114.521 42.931 114.065 42.823 113.63 42.606 C 113.195 42.39 112.866 42.072 112.639 41.655 C 112.413 41.236 112.301 40.73 112.301 40.128 L 112.301 40.128 L 112.301 40.128 L 112.301 40.128 L 112.301 40.128 L 112.301 40.128 L 112.301 40.128 Z  M 125.115 39.184 L 123.863 38.959 C 124.003 38.454 124.245 38.08 124.591 37.838 C 124.935 37.596 125.444 37.475 126.123 37.475 C 126.739 37.475 127.199 37.548 127.499 37.694 C 127.801 37.839 128.012 38.024 128.136 38.248 C 128.259 38.474 128.32 38.886 128.32 39.486 L 128.305 41.098 C 128.305 41.556 128.327 41.894 128.372 42.111 C 128.416 42.331 128.497 42.563 128.62 42.812 L 127.253 42.812 C 127.217 42.722 127.173 42.584 127.12 42.404 C 127.099 42.323 127.081 42.268 127.072 42.242 C 126.835 42.471 126.584 42.643 126.315 42.758 C 126.047 42.874 125.76 42.931 125.455 42.931 C 124.917 42.931 124.493 42.784 124.184 42.494 C 123.875 42.202 123.72 41.834 123.72 41.387 C 123.72 41.092 123.791 40.83 123.932 40.599 C 124.072 40.367 124.269 40.19 124.524 40.067 C 124.777 39.944 125.144 39.836 125.621 39.746 C 126.268 39.624 126.713 39.511 126.964 39.406 L 126.964 39.27 C 126.964 39.003 126.897 38.815 126.768 38.702 C 126.636 38.588 126.388 38.532 126.025 38.532 C 125.779 38.532 125.588 38.58 125.449 38.676 C 125.312 38.774 125.201 38.943 125.115 39.184 L 125.115 39.184 L 125.115 39.184 L 125.115 39.184 L 125.115 39.184 Z  M 37.076 28.376 C 37.503 29.272 37.647 29.964 38.735 30.412 C 39.447 30.699 39.872 30.941 39.872 31.716 C 39.872 32.899 38.309 32.816 37.361 32.816 L 25.467 32.816 C 24.377 32.816 22.955 32.816 22.955 31.553 C 22.955 30.209 24.897 30.455 24.897 29.559 C 24.897 29.231 24.661 28.621 24.52 28.335 L 21.581 20.757 C 21.297 19.984 20.965 19.128 20.965 18.272 C 20.965 17.417 21.487 16.888 22.055 16.196 L 27.552 9.473 C 28.215 8.7 28.783 7.884 28.783 6.908 C 28.783 5.808 28.121 5.236 26.984 4.829 C 26.225 4.544 25.515 4.381 25.515 3.567 C 25.515 2.303 26.84 2.345 27.836 2.345 L 35.94 2.345 C 37.076 2.345 38.452 2.385 38.452 3.689 C 38.452 4.625 37.551 4.911 36.697 5.196 C 33.428 6.255 32.339 7.804 30.348 10.127 L 29.447 11.185 L 37.076 28.376 L 37.076 28.376 L 37.076 28.376 L 37.076 28.376 L 37.076 28.376 L 37.076 28.376 Z  M 19.212 28.253 C 19.212 29.76 19.165 30.005 20.823 30.455 C 21.439 30.617 21.867 30.983 21.867 31.553 C 21.867 32.735 20.3 32.816 20.112 32.816 L 6.701 32.816 C 6.512 32.816 4.948 32.735 4.948 31.553 C 4.948 30.983 5.375 30.617 5.992 30.455 C 7.649 30.005 7.603 29.76 7.603 28.253 L 7.603 6.908 C 7.603 5.4 7.649 5.155 5.992 4.707 C 5.375 4.544 4.948 4.177 4.948 3.607 C 4.948 2.427 6.512 2.345 6.701 2.345 L 20.112 2.345 C 20.3 2.345 21.867 2.427 21.867 3.607 C 21.867 4.177 21.439 4.544 20.823 4.707 C 19.165 5.155 19.212 5.4 19.212 6.908 L 19.212 28.253 L 19.212 28.253 L 19.212 28.253 L 19.212 28.253 L 19.212 28.253 L 19.212 28.253 Z  M 58.295 2.345 L 59.765 2.345 C 62.75 2.345 65.783 2.385 68.531 3.526 C 71.469 4.789 73.175 6.907 73.175 9.799 C 73.175 14.279 68.817 16.358 64.221 16.97 L 64.221 17.05 C 69.479 17.785 73.649 19.781 73.649 24.873 C 73.649 27.763 72.181 30.045 69.194 31.473 C 66.161 32.938 63.177 32.817 59.813 32.817 L 58.295 32.817 L 58.295 30.451 C 61.473 30.33 61.85 28.782 61.85 27.317 L 61.85 22.062 C 61.85 20.187 61.329 18.434 58.295 18.233 L 58.295 15.869 C 61.755 15.623 61.85 13.873 61.85 12.365 L 61.85 8.293 C 61.85 6.581 61.141 4.951 58.295 4.706 L 58.295 2.345 L 58.295 2.345 L 58.295 2.345 L 58.295 2.345 L 58.295 2.345 L 58.295 2.345 Z  M 56.165 32.817 L 43.417 32.817 C 43.086 32.817 41.901 32.734 41.901 31.553 C 41.901 30.983 42.327 30.617 42.942 30.451 C 44.601 30.005 44.554 29.761 44.554 28.254 L 44.554 6.907 C 44.554 5.401 44.601 5.155 42.942 4.706 C 42.327 4.545 41.901 4.177 41.901 3.606 C 41.901 2.426 43.086 2.345 43.417 2.345 L 56.165 2.345 L 56.165 32.817 L 56.165 32.817 L 56.165 32.817 L 56.165 32.817 L 56.165 32.817 L 56.165 32.817 Z  M 75.2 2.345 L 82.158 2.345 L 82.158 4.707 C 79.644 6.215 78.968 8.906 78.534 11.067 C 78.388 11.965 78.144 13.025 76.794 13.025 C 75.344 13.025 75.2 12.005 75.2 11.842 L 75.2 2.345 L 75.2 2.345 L 75.2 2.345 L 75.2 2.345 Z  M 83.869 2.345 L 95.702 2.345 L 95.702 28.269 C 95.702 29.777 95.656 30.022 97.344 30.471 C 97.974 30.634 98.41 31.001 98.41 31.571 C 98.41 32.754 96.816 32.835 96.621 32.835 L 82.95 32.835 C 82.757 32.835 81.162 32.754 81.162 31.571 C 81.162 31.001 81.598 30.634 82.228 30.471 C 83.916 30.022 83.869 29.777 83.869 28.269 L 83.869 2.345 L 83.869 2.345 L 83.869 2.345 Z  M 104.37 11.842 C 104.37 12.006 104.228 13.024 102.78 13.024 C 101.424 13.024 101.182 11.964 101.037 11.067 C 100.604 8.907 99.928 6.216 97.413 4.708 L 97.413 2.344 L 104.37 2.344 L 104.37 11.842 L 104.37 11.842 Z " fill-rule="evenodd" fill="var(--logo-color, black)"></path>
</svg>